<?xml version="1.0" encoding="UTF-8"?>
<svg id="Layer_1" xmlns="http://www.w3.org/2000/svg" baseProfile="tiny" version="1.2" viewBox="0 0 1024 1024">
  <!-- Generator: Adobe Illustrator 29.6.1, SVG Export Plug-In . SVG Version: 2.1.1 Build 9)  -->
  <g>
    <path d="M639.6,620.5c2.8.3,1.7,0,2.2-1.6,10.4-33.6,15.9-70.4,26.3-103.7,2.7-8.7,9.7-14.6,18.6-17.2,87.8-4.1,179,7.7,265.9-3.7,31.8-10.3,51.7-54.1,30.1-82.2-3.9-8.9,3.5-3.4,6.9-.6,47.3,39.3,5.3,123.4-52.7,124.5l-233.4.5c-15.9,55.2-30.9,113.6-45.8,169.7-6,18.5-31.3,18.7-37.5-.8-24.2-108.5-47.3-217.7-70.4-326.4-14.3,46-24.5,95.7-36.9,143.1-4.2,6.3-7.4,10.7-15,13.3,0,0-404.5.5-404.5.5-47.8-.6-79.2,52-52.5,93.2-2,2-11.4-7.5-12.6-9.1-36.1-48.2,1-113,56.5-121.8l394.6-.6c18.8-68.5,34.4-140.2,53.8-208.2,8.3-17.3,32.5-14.5,37.8,3.8,4.2,14.7,6,32.9,9.3,48.1,18.9,93,42.6,185.4,59.3,279.1Z" display="none"/>
    <path d="M353.4,620.5c2.8.3,1.7,0,2.2-1.6,10.4-33.6,15.9-70.4,26.3-103.7,2.7-8.7,9.7-14.6,18.6-17.2,87.8-4.1,465.3,7.7,552.1-3.7,31.8-10.3,51.7-54.1,30.1-82.2-3.9-8.9,3.5-3.4,6.9-.6,47.3,39.3,5.3,123.4-52.7,124.5l-519.6.5c-15.9,55.2-30.9,113.6-45.8,169.7-6,18.5-31.3,18.7-37.5-.8-24.2-108.5-47.3-217.7-70.4-326.4-14.3,46-24.5,95.7-36.9,143.1-4.2,6.3-7.4,10.7-15,13.3,0,0-118.2.5-118.2.5-47.8-.6-79.2,52-52.5,93.2-2,2-11.4-7.5-12.6-9.1-36.1-48.2,1-113,56.5-121.8l108.4-.6c18.8-68.5,34.4-140.2,53.8-208.2,8.3-17.3,32.5-14.5,37.8,3.8,4.2,14.7,6,32.9,9.3,48.1,18.9,93,42.6,185.4,59.3,279.1Z"/>
    <g id="Border">
      <path d="M917.4,809.5c-30,46.4-77.6,62.6-131.1,62.2-126.5-1-253.4-1.4-380-1.2-284.7,8.6-337.1,10.4-321.8-295.8,6.1-24.3,37.5-21.3,39.8,4,4.6,50.7-3,108.6,0,160.3,2.5,45.2,33.1,79.4,76.4,90.3,204.8,2.7,410,.3,614.9,1.2,121.7-19,75.6-167.6,84-253.8,3.3-27.4,39.7-26.3,40,2.1,2.6,31-.6,68.1-1,99.5-.5,48.4,6.8,88-21.1,131.2Z"/>
      <g>
        <path d="M938.6,357.5c-.5-48.4,6.8-88-21.1-131.2-30-46.4-77.6-62.6-131.1-62.2-2.8,0-5.6,0-8.4,0-11,0-19.9,9-19.9,20v1.2c0,11.1,9,20,20.1,20,12,0,23.9,0,35.9-.1s2.2,0,3.4.3c119.6,20.1,74,167.7,82.3,253.6,3.3,27.4,39.7,26.3,40-2.1,2.6-31-.6-68.1-1-99.5Z"/>
        <path d="M308.5,163.3c-199.1-1.7-237.3,30.9-224,297.8,6.1,24.3,37.5,21.2,39.8-4,4.6-50.6-3-108.5,0-160.1,2.5-45.2,33.1-79.4,76.4-90.2,39.2-.5,78.3-.8,117.5-1,6.5,0,11.8-5.3,11.8-11.9v-8.8c0-11.9-9.6-21.6-21.5-21.7Z"/>
      </g>
      <path d="M121.7,469.6c-11.6,16.2-35.2,10.9-37.4-8.9,4.5-48.7-8.5-114.4,4.9-160.5,1.7-5.8,3.2-14,10.1-11.4s28.7,13.6,29.1,15.2c-14.8,50.5,5,113.9-6.7,165.7Z" display="none"/>
      <path d="M824.2,184.1c59.3,5.8,110.4,60.6,114.3,119.6,3.4,52.1-2.7,107.8,0,160.3-3.5,18-29.1,20.3-36,3.4-12.8-84.7,36.5-236.1-93.4-245.5-91-1.9-184.9,2.2-276.2,1.2-1.6-.2-5.9-.8-5.9-2.8,0,0,0-36.3,0-36.3h297.2Z" display="none"/>
      <path d="M824.2,184.1c59.3,5.8,110.4,60.6,114.3,119.6,3.4,52.1-2.7,107.8,0,160.3-3.5,18-29.1,20.3-36,3.4-12.8-84.7,36.5-236.1-93.4-245.5-91-1.9-184.9,2.2-276.2,1.2-1.6-.2-5.9-.8-5.9-2.8,0,0,0-36.3,0-36.3h297.2Z" display="none"/>
    </g>
    <g id="LSL">
      <path d="M577.9,595.6s-103.4,0-103.4,0c-20.1,7.4-23,37.2-7.4,50.7,17.4,12.8,59.9,5.1,83.4,10.8,71.4,17.6,72.2,123.2,5.6,144.5-9,7.1-127.7,3-140.5,4v-47.6h120.7c3.1,0,11.5-6.6,13.1-9.1,5.3-8.1,5.9-20.8,3.2-29.9-7.2-24.1-33.8-17.3-53.1-18.3s-54.8-4-73.6-23.8c-27.1-28.6-26.5-83.9,4.7-109.3,28.5-23.2,61.8-17.6,96-17.3,13.7.1,27.3-1.6,41-1,4.4,1.5,4.4,13.7,5.3,17.4,2.2,9.4,6.4,19.1,5.1,29Z"/>
      <path d="M365.7,758c-.4,1.1,1.1,2.3,1.1,2.7,0,0,0,43.3,0,43.3,0,.9-2.6,1.9-3.7,1.7-37.5-1.6-76.5,1.9-113.8,0-43.9-1.1-72.5-33.3-65.4-77.4,0-58.7,0-117.3,0-176,0,0,48.2,0,48.2,0,4.7,0,0,189.5,1.6,191.1,0,4.1,8.2,14.6,12.4,14.6,0,0,119.6,0,119.6,0Z"/>
      <path d="M854.1,758c-.4,1.1,1.1,2.3,1.1,2.7,0,0,0,43.3,0,43.3,0,.9-2.6,1.9-3.7,1.7-37.5-1.6-76.5,1.9-113.8,0-43.9-1.1-72.5-33.3-65.4-77.4,0-58.7,0-117.3,0-176,0,0,48.2,0,48.2,0,4.7,0,0,189.5,1.6,191.1,0,4.1,8.2,14.6,12.4,14.6,0,0,119.6,0,119.6,0Z"/>
    </g>
    <path d="M846,364.3c56.3,51.8-36.4,124.3-71.8,55-18.5-45.1,33.5-84.2,71.8-55Z"/>
    <path d="M369.2,411.5c-13-1.7-26.2-14.2-29.7-26.6-1.8-68.8-2.2-138.7.3-207.5,5.1-14.7,19.2-25.2,34.9-25.6,96.8,1.6,194.5-1.1,291.2-.3,30.9,0,70.7-7.3,78.5,32,1.1,301.9,34.3,214.4-249.1,228.4-27.5,23-51.3,52.8-80,73.2v-73.6c-14.3-1.4-32.1,1.9-46,0ZM473.3,259.3c-14.7-13.2-40-6.9-46.6,11.7-9.6,26.8,21.6,50.4,44.3,33.4,13.6-10.2,15-33.7,2.3-45.1ZM562.9,263.8c-26.2-32.9-70.6,9.2-43.3,37.3s65.4-9.5,43.3-37.3ZM649.7,259.4c-31.8-25-66,20.4-36.9,43.9,30.7,24.8,64.6-22.1,36.9-43.9Z"/>
  </g>
  <g>
    <path d="M639.6,620.5c2.8.3,1.7,0,2.2-1.6,10.4-33.6,15.9-70.4,26.3-103.7,2.7-8.7,9.7-14.6,18.6-17.2,87.8-4.1,179,7.7,265.9-3.7,31.8-10.3,51.7-54.1,30.1-82.2-3.9-8.9,3.5-3.4,6.9-.6,47.3,39.3,5.3,123.4-52.7,124.5l-233.4.5c-15.9,55.2-30.9,113.6-45.8,169.7-6,18.5-31.3,18.7-37.5-.8-24.2-108.5-47.3-217.7-70.4-326.4-14.3,46-24.5,95.7-36.9,143.1-4.2,6.3-7.4,10.7-15,13.3,0,0-404.5.5-404.5.5-47.8-.6-79.2,52-52.5,93.2-2,2-11.4-7.5-12.6-9.1-36.1-48.2,1-113,56.5-121.8l394.6-.6c18.8-68.5,34.4-140.2,53.8-208.2,8.3-17.3,32.5-14.5,37.8,3.8,4.2,14.7,6,32.9,9.3,48.1,18.9,93,42.6,185.4,59.3,279.1Z" display="none" fill="#006e10"/>
    <path d="M353.4,620.5c2.8.3,1.7,0,2.2-1.6,10.4-33.6,15.9-70.4,26.3-103.7,2.7-8.7,9.7-14.6,18.6-17.2,87.8-4.1,465.3,7.7,552.1-3.7,31.8-10.3,51.7-54.1,30.1-82.2-3.9-8.9,3.5-3.4,6.9-.6,47.3,39.3,5.3,123.4-52.7,124.5l-519.6.5c-15.9,55.2-30.9,113.6-45.8,169.7-6,18.5-31.3,18.7-37.5-.8-24.2-108.5-47.3-217.7-70.4-326.4-14.3,46-24.5,95.7-36.9,143.1-4.2,6.3-7.4,10.7-15,13.3,0,0-118.2.5-118.2.5-47.8-.6-79.2,52-52.5,93.2-2,2-11.4-7.5-12.6-9.1-36.1-48.2,1-113,56.5-121.8l108.4-.6c18.8-68.5,34.4-140.2,53.8-208.2,8.3-17.3,32.5-14.5,37.8,3.8,4.2,14.7,6,32.9,9.3,48.1,18.9,93,42.6,185.4,59.3,279.1Z" fill="#006e10"/>
    <g id="Border1" data-name="Border">
      <path d="M917.4,809.5c-30,46.4-77.6,62.6-131.1,62.2-126.5-1-253.4-1.4-380-1.2-284.7,8.6-337.1,10.4-321.8-295.8,6.1-24.3,37.5-21.3,39.8,4,4.6,50.7-3,108.6,0,160.3,2.5,45.2,33.1,79.4,76.4,90.3,204.8,2.7,410,.3,614.9,1.2,121.7-19,75.6-167.6,84-253.8,3.3-27.4,39.7-26.3,40,2.1,2.6,31-.6,68.1-1,99.5-.5,48.4,6.8,88-21.1,131.2Z" fill="#fff"/>
      <g>
        <path d="M938.6,357.5c-.5-48.4,6.8-88-21.1-131.2-30-46.4-77.6-62.6-131.1-62.2-2.8,0-5.6,0-8.4,0-11,0-19.9,9-19.9,20v1.2c0,11.1,9,20,20.1,20,12,0,23.9,0,35.9-.1s2.2,0,3.4.3c119.6,20.1,74,167.7,82.3,253.6,3.3,27.4,39.7,26.3,40-2.1,2.6-31-.6-68.1-1-99.5Z" fill="#fff"/>
        <path d="M308.5,163.3c-199.1-1.7-237.3,30.9-224,297.8,6.1,24.3,37.5,21.2,39.8-4,4.6-50.6-3-108.5,0-160.1,2.5-45.2,33.1-79.4,76.4-90.2,39.2-.5,78.3-.8,117.5-1,6.5,0,11.8-5.3,11.8-11.9v-8.8c0-11.9-9.6-21.6-21.5-21.7Z" fill="#fff"/>
      </g>
      <path d="M121.7,469.6c-11.6,16.2-35.2,10.9-37.4-8.9,4.5-48.7-8.5-114.4,4.9-160.5,1.7-5.8,3.2-14,10.1-11.4s28.7,13.6,29.1,15.2c-14.8,50.5,5,113.9-6.7,165.7Z" display="none" fill="#dfdfdf" stroke="#000" stroke-miterlimit="10" stroke-width="5"/>
      <path d="M824.2,184.1c59.3,5.8,110.4,60.6,114.3,119.6,3.4,52.1-2.7,107.8,0,160.3-3.5,18-29.1,20.3-36,3.4-12.8-84.7,36.5-236.1-93.4-245.5-91-1.9-184.9,2.2-276.2,1.2-1.6-.2-5.9-.8-5.9-2.8,0,0,0-36.3,0-36.3h297.2Z" display="none" fill="#dfdfdf" stroke="#000" stroke-miterlimit="10" stroke-width="5"/>
      <path d="M824.2,184.1c59.3,5.8,110.4,60.6,114.3,119.6,3.4,52.1-2.7,107.8,0,160.3-3.5,18-29.1,20.3-36,3.4-12.8-84.7,36.5-236.1-93.4-245.5-91-1.9-184.9,2.2-276.2,1.2-1.6-.2-5.9-.8-5.9-2.8,0,0,0-36.3,0-36.3h297.2Z" display="none" fill="#dfdfdf" stroke="#000" stroke-miterlimit="10" stroke-width="5"/>
    </g>
    <g id="LSL1" data-name="LSL">
      <path d="M577.9,595.6s-103.4,0-103.4,0c-20.1,7.4-23,37.2-7.4,50.7,17.4,12.8,59.9,5.1,83.4,10.8,71.4,17.6,72.2,123.2,5.6,144.5-9,7.1-127.7,3-140.5,4v-47.6h120.7c3.1,0,11.5-6.6,13.1-9.1,5.3-8.1,5.9-20.8,3.2-29.9-7.2-24.1-33.8-17.3-53.1-18.3s-54.8-4-73.6-23.8c-27.1-28.6-26.5-83.9,4.7-109.3,28.5-23.2,61.8-17.6,96-17.3,13.7.1,27.3-1.6,41-1,4.4,1.5,4.4,13.7,5.3,17.4,2.2,9.4,6.4,19.1,5.1,29Z" fill="#fff"/>
      <path d="M365.7,758c-.4,1.1,1.1,2.3,1.1,2.7,0,0,0,43.3,0,43.3,0,.9-2.6,1.9-3.7,1.7-37.5-1.6-76.5,1.9-113.8,0-43.9-1.1-72.5-33.3-65.4-77.4,0-58.7,0-117.3,0-176,0,0,48.2,0,48.2,0,4.7,0,0,189.5,1.6,191.1,0,4.1,8.2,14.6,12.4,14.6,0,0,119.6,0,119.6,0Z" fill="#fff"/>
      <path d="M854.1,758c-.4,1.1,1.1,2.3,1.1,2.7,0,0,0,43.3,0,43.3,0,.9-2.6,1.9-3.7,1.7-37.5-1.6-76.5,1.9-113.8,0-43.9-1.1-72.5-33.3-65.4-77.4,0-58.7,0-117.3,0-176,0,0,48.2,0,48.2,0,4.7,0,0,189.5,1.6,191.1,0,4.1,8.2,14.6,12.4,14.6,0,0,119.6,0,119.6,0Z" fill="#fff"/>
    </g>
    <path d="M846,364.3c56.3,51.8-36.4,124.3-71.8,55-18.5-45.1,33.5-84.2,71.8-55Z" fill="#c00" stroke="#fff" stroke-miterlimit="10" stroke-width="8"/>
    <path d="M369.2,411.5c-13-1.7-26.2-14.2-29.7-26.6-1.8-68.8-2.2-138.7.3-207.5,5.1-14.7,19.2-25.2,34.9-25.6,96.8,1.6,194.5-1.1,291.2-.3,30.9,0,70.7-7.3,78.5,32,1.1,301.9,34.3,214.4-249.1,228.4-27.5,23-51.3,52.8-80,73.2v-73.6c-14.3-1.4-32.1,1.9-46,0ZM473.3,259.3c-14.7-13.2-40-6.9-46.6,11.7-9.6,26.8,21.6,50.4,44.3,33.4,13.6-10.2,15-33.7,2.3-45.1ZM562.9,263.8c-26.2-32.9-70.6,9.2-43.3,37.3s65.4-9.5,43.3-37.3ZM649.7,259.4c-31.8-25-66,20.4-36.9,43.9,30.7,24.8,64.6-22.1,36.9-43.9Z" fill="#33f"/>
  </g>
</svg>